<?xml version="1.0" encoding="UTF-8" standalone="no"?>
<svg
   data-v-6805eed4=""
   version="1.0"
   width="100%"
   height="100%"
   viewBox="0 0 340.000000 250.000000"
   preserveAspectRatio="xMidYMid meet"
   color-interpolation-filters="sRGB"
   style="margin: auto;"
   id="svg28"
   sodipodi:docname="logo.svg"
   inkscape:export-filename="logo-full.png"
   inkscape:export-xdpi="578.25885"
   inkscape:export-ydpi="578.25885"
   inkscape:version="1.3 (0e150ed6c4, 2023-07-21)"
   xmlns:inkscape="http://www.inkscape.org/namespaces/inkscape"
   xmlns:sodipodi="http://sodipodi.sourceforge.net/DTD/sodipodi-0.dtd"
   xmlns="http://www.w3.org/2000/svg"
   xmlns:svg="http://www.w3.org/2000/svg">
  <sodipodi:namedview
     id="namedview28"
     pagecolor="#ffffff"
     bordercolor="#999999"
     borderopacity="1"
     inkscape:showpageshadow="2"
     inkscape:pageopacity="0"
     inkscape:pagecheckerboard="0"
     inkscape:deskcolor="#d1d1d1"
     showgrid="false"
     inkscape:export-bgcolor="#ffffff00"
     inkscape:zoom="1.65"
     inkscape:cx="213.0303"
     inkscape:cy="197.27273"
     inkscape:window-width="1920"
     inkscape:window-height="1017"
     inkscape:window-x="-8"
     inkscape:window-y="-8"
     inkscape:window-maximized="1"
     inkscape:current-layer="g28" />
  <rect
     data-v-6805eed4=""
     x="0"
     y="0"
     width="100%"
     height="100%"
     fill="#feffff"
     fill-opacity="0"
     class="background"
     id="rect1"
     style="display:inline" />
  <rect
     data-v-6805eed4=""
     x="0"
     y="0"
     width="100%"
     height="100%"
     fill="url(#watermark)"
     fill-opacity="1"
     class="watermarklayer"
     id="rect2"
     style="display:inline" />
  <g
     data-v-6805eed4=""
     fill="#1a1a1a"
     class="iconlinesvg-g iconlinesvg"
     transform="matrix(1.483454,0,0,1.7169895,33.314548,72.955949)"
     id="g28"
     inkscape:export-filename="logo.svg"
     inkscape:export-xdpi="359.60001"
     inkscape:export-ydpi="359.60001">
    <g
       class="tp-name"
       opacity="1"
       id="g24">
      <g
         id="g11"
         style="display:inline">
        <g
           id="g10">
          <g
             class="imagesvg"
             id="g9"
             style="display:inline">
            <g
               id="g8"
               style="display:inline">
              <rect
                 fill="#1a1a1a"
                 fill-opacity="0"
                 stroke-width="2"
                 x="0"
                 y="0"
                 width="42.57486"
                 height="45.084724"
                 class="image-rect"
                 id="rect3" />
              <svg
                 x="0"
                 y="0"
                 width="42.57486"
                 height="45.084724"
                 filtersec="colorsb5074604395"
                 class="image-svg-svg primary"
                 style="display:inline;overflow:visible"
                 version="1.1"
                 id="svg8">
                <svg
                   viewBox="0 0 48.34 51.190002"
                   version="1.1"
                   id="svg7"
                   width="100%"
                   height="100%"
                   style="display:inline">
                  <title
                     id="title3">n10</title>
                  <g
                     data-name="图层 2"
                     id="g7"
                     style="display:inline">
                    <g
                       data-name="Layer 1"
                       id="g6"
                       style="display:inline">
                      <path
                         fill="#fbb03b"
                         d="m 42.61,1.9 h 5.73 V 0 H 34.98 v 1.9 h 5.73 v 23.69 h 1.9 z"
                         id="path3" />
                      <path
                         fill="#0071bc"
                         d="M 6.73,49.29 H 1 v 1.9 h 13.39 v -1.9 H 8.66 V 25.59 H 6.73 Z"
                         id="path4" />
                      <path
                         fill="#ed1c24"
                         d="M 24.17,23.91 7.66,0 H 0 v 1.9 h 5.73 v 23.69 h 1.93 v -22 l 0.22,-0.07 15.2,22.07 h 1.09 z"
                         id="path5" />
                      <path
                         fill="#009245"
                         d="M 41.71,25.59 V 47.5 L 41.5,47.57 26.33,25.59 h -1.16 v 1.58 l 16.54,24.02 h 1.9 v -25.6 z"
                         id="path6"
                         style="display:inline" />
                    </g>
                  </g>
                </svg>
              </svg>
              <!---->
            </g>
          </g>
        </g>
      </g>
      <g
         id="g29">
        <g
           transform="translate(46,3.7569622)"
           id="g13">
          <g
             data-gra="path-name"
             fill="#1a1a1a"
             id="g12">
            <path
               d="M 19.09,-37.57 H 0 V 0 H 19.09 V -7.2 H 7.2 v -8 h 9.5 v -7.17 H 7.2 v -8 h 11.89 z"
               transform="translate(0,37.570801)"
               id="path11" />
          </g>
        </g>
        <g
           transform="translate(69,3.7569622)"
           id="g15">
          <g
             data-gra="path-name"
             fill="#1a1a1a"
             id="g14">
            <path
               d="M 19.87,-37.57 13.83,-17.32 7.79,-37.57 H 0 V 0 H 7.2 V -15.23 L 10.74,0 h 6.18 l 3.54,-15.23 V 0 h 7.2 v -37.57 z"
               transform="translate(0,37.570801)"
               id="path13" />
          </g>
        </g>
        <g
           transform="translate(100,3.7569622)"
           id="g17">
          <g
             data-gra="path-name"
             fill="#1a1a1a"
             id="g16">
            <path
               d="M 19.09,-37.57 H 0 V 0 H 19.09 V -7.2 H 7.2 v -8 h 9.5 v -7.17 H 7.2 v -8 h 11.89 z"
               transform="translate(0,37.570801)"
               id="path15" />
          </g>
        </g>
        <g
           transform="translate(123,3.7569622)"
           id="g19">
          <g
             data-gra="path-name"
             fill="#1a1a1a"
             id="g18">
            <path
               d="M 17.78,-37.57 H 5.51 L 0,-32.04 v 11.36 l 5.37,5.48 h 10.74 v 8 H 7.2 v -5.61 H 0 v 7.3 L 5.51,0 h 12.27 l 5.5,-5.51 v -11.3 l -1.96,-1.91 0.03,-0.03 -3.71,-3.62 H 7.2 v -8 h 8.91 v 5.61 h 7.17 v -7.28 z"
               transform="translate(0,37.570801)"
               id="path17" />
          </g>
        </g>
        <g
           transform="translate(150,3.7569622)"
           id="g21">
          <g
             data-gra="path-name"
             fill="#1a1a1a"
             id="g20">
            <path
               d="M 0,-37.57 V 0 h 7.2 v -37.57 z"
               transform="translate(0,37.570801)"
               id="path19" />
          </g>
        </g>
        <g
           transform="translate(161,3.7569622)"
           id="g23">
          <g
             data-gra="path-name"
             fill="#1a1a1a"
             id="g22">
            <path
               d="M 17.78,-37.57 H 5.51 L 0,-32.04 v 11.36 l 5.37,5.48 h 10.74 v 8 H 7.2 v -5.61 H 0 v 7.3 L 5.51,0 h 12.27 l 5.5,-5.51 v -11.3 l -1.96,-1.91 0.03,-0.03 -3.71,-3.62 H 7.2 v -8 h 8.91 v 5.61 h 7.17 v -7.28 z"
               transform="translate(0,37.570801)"
               id="path21" />
          </g>
        </g>
      </g>
    </g>
    <text
       xml:space="preserve"
       transform="translate(-77.860001,-95.379637)"
       id="text29"
       style="font-style:normal;font-variant:normal;font-weight:normal;font-stretch:normal;font-size:21.3333px;font-family:CabinSketch;-inkscape-font-specification:CabinSketch;white-space:pre;shape-inside:url(#rect29);fill:#7c7c7c;fill-opacity:1;stroke:#000000;stroke-width:0.226772;stroke-linecap:round;stroke-linejoin:round;stroke-miterlimit:2.9;paint-order:fill markers stroke"><tspan
         x="123.85938"
         y="155.27802"
         id="tspan4"><tspan
           style="stroke:#f03030"
           id="tspan3">STUDIOS</tspan></tspan></text>
  </g>
  <defs
     v-gra="od"
     id="defs28">
    <rect
       x="123.86"
       y="136.7074"
       width="138.28"
       height="29.959267"
       id="rect29" />
  </defs>
</svg>
